#N canvas 710 46 559 485 10;
#N canvas 834 338 449 316 abstract 1;
#N canvas 0 22 450 300 gemwin 0;
#X obj 132 136 gemwin;
#X obj 67 89 outlet;
#X obj 67 10 inlet;
#X msg 67 70 set destroy;
#X msg 132 112 create \, 1;
#X msg 198 112 destroy;
#X msg 156 71 set create+DSP;
#X obj 67 41 route create+DSP;
#X msg 102 163 \; pd dsp 1;
#X msg 361 157 dimen 256 256;
#X connect 2 0 7 0;
#X connect 3 0 1 0;
#X connect 4 0 0 0;
#X connect 5 0 0 0;
#X connect 6 0 1 0;
#X connect 7 0 3 0;
#X connect 7 0 4 0;
#X connect 7 0 8 0;
#X connect 7 0 9 0;
#X connect 7 1 6 0;
#X connect 7 1 5 0;
#X connect 9 0 0 0;
#X restore 76 52 pd gemwin;
#X msg 76 33 destroy;
#X obj 14 160 pix_sig2pix~;
#X obj -47 161 gemhead 2;
#X obj 11 245 pix_texture;
#X obj -47 9 inlet~;
#X obj 77 8 inlet;
#X obj 92 159 block~ 4096;
#X obj 10 266 rectangle 4 4;
#X obj 16 209 pix_hsv2rgb;
#X obj 33 9 inlet~;
#X obj -7 59 sig~;
#X obj -5 10 inlet;
#X text -30 176 comment;
#X obj 137 11 inlet;
#X obj 171 157 pix_sig2pix~;
#X obj 176 225 mux;
#X connect 0 0 1 0;
#X connect 1 0 0 0;
#X connect 2 0 9 0;
#X connect 3 0 2 0;
#X connect 3 0 15 0;
#X connect 4 0 8 0;
#X connect 5 0 2 0;
#X connect 5 0 15 0;
#X connect 5 0 15 1;
#X connect 5 0 15 2;
#X connect 6 0 1 0;
#X connect 9 0 16 0;
#X connect 10 0 2 2;
#X connect 11 0 2 1;
#X connect 12 0 11 0;
#X connect 14 0 16 2;
#X connect 15 0 16 1;
#X connect 16 0 4 0;
#X restore 89 118 pd abstract;
#X obj 88 64 adc~;
#X obj 157 85 bng 15 250 50 0 empty empty empty 17 7 0 10 -262144 -1
-1;
#X obj 25 -5 vsl 15 128 0 10 0 0 empty empty empty 0 -9 0 10 -262144
-1 -1 2300 1;
#X text 50 -10 saturation;
#X obj 186 1 vsl 15 128 0 128 0 0 empty empty empty 0 -9 0 10 -262144
-1 -1 0 1;
#X obj -16 225 delread~ delay1;
#X obj 120 229 delread~ delay2;
#X obj 374 89 metro 50;
#X obj 392 3 tgl 15 0 empty empty empty 17 7 0 10 -262144 -1 -1 0 1
;
#X floatatom 337 227 5 0 0 0 - - -;
#X obj 290 7 vsl 15 128 0 128 0 0 empty empty empty 0 -9 0 10 -262144
-1 -1 6350 1;
#X floatatom 298 152 5 0 0 0 - - -;
#X obj 340 206 *;
#X floatatom 260 185 5 0 0 0 - - -;
#X msg 316 66 64;
#X obj 243 88 bng 15 250 50 0 empty empty empty 17 7 0 10 -262144 -1
-1;
#X obj 121 208 delwrite~ delay2 4096;
#X obj -15 206 delwrite~ delay1 4096;
#X obj 164 45 tgl 15 0 empty empty empty 17 7 0 10 -262144 -1 -1 0
1;
#X connect 1 0 18 0;
#X connect 1 1 17 0;
#X connect 2 0 0 3;
#X connect 3 0 0 1;
#X connect 5 0 14 0;
#X connect 6 0 0 0;
#X connect 7 0 0 2;
#X connect 9 0 8 0;
#X connect 10 0 7 0;
#X connect 10 0 6 0;
#X connect 11 0 12 0;
#X connect 12 0 13 1;
#X connect 13 0 10 0;
#X connect 14 0 13 0;
#X connect 15 0 11 0;
#X connect 16 0 5 0;
#X connect 16 0 11 0;
#X connect 19 0 0 4;
