#N canvas 319 41 214 159 10;
#N canvas 338 240 276 178 abstract 1;
#N canvas 0 22 450 300 gemwin 0;
#X obj 132 136 gemwin;
#X obj 67 89 outlet;
#X obj 67 10 inlet;
#X msg 67 70 set destroy;
#X msg 132 112 create \, 1;
#X msg 198 112 destroy;
#X msg 156 71 set create+DSP;
#X obj 67 41 route create+DSP;
#X msg 102 163 \; pd dsp 1;
#X msg 361 157 dimen 256 256;
#X connect 2 0 7 0;
#X connect 3 0 1 0;
#X connect 4 0 0 0;
#X connect 5 0 0 0;
#X connect 6 0 1 0;
#X connect 7 0 3 0;
#X connect 7 0 4 0;
#X connect 7 0 8 0;
#X connect 7 0 9 0;
#X connect 7 1 6 0;
#X connect 7 1 5 0;
#X connect 9 0 0 0;
#X restore 76 52 pd gemwin;
#X msg 76 33 destroy;
#X obj -32 81 pix_sig2pix~;
#X obj -93 82 gemhead 2;
#X obj -30 124 pix_texture;
#X obj -47 9 inlet~;
#X obj 77 8 inlet;
#X obj 46 80 block~ 4096;
#X obj -31 145 rectangle 4 4;
#X obj -30 101 pix_hsv2rgb;
#X obj 33 9 inlet~;
#X obj -7 59 sig~;
#X obj -5 10 inlet;
#X connect 0 0 1 0;
#X connect 1 0 0 0;
#X connect 2 0 9 0;
#X connect 3 0 2 0;
#X connect 4 0 8 0;
#X connect 5 0 2 0;
#X connect 6 0 1 0;
#X connect 9 0 4 0;
#X connect 10 0 2 2;
#X connect 11 0 2 1;
#X connect 12 0 11 0;
#X restore 89 118 pd abstract;
#X obj 88 64 adc~;
#X obj 157 85 bng 15 250 50 0 empty empty empty 17 7 0 10 -262144 -1
-1;
#X obj 33 -2 vsl 15 128 0 10 0 0 empty empty empty 0 -9 0 10 -262144
-1 -1 0 1;
#X connect 1 0 0 0;
#X connect 1 1 0 2;
#X connect 2 0 0 3;
#X connect 3 0 0 1;
